<svg width="192" height="192" viewBox="0 0 192 192" fill="none" xmlns="http://www.w3.org/2000/svg">
  <rect width="192" height="192" rx="48" fill="#2C3E50"/>
  <path d="M64 56C57.3726 56 52 61.3726 52 68V124C52 130.627 57.3726 136 64 136H80C83.3137 136 86 133.314 86 130C86 126.686 83.3137 124 80 124H64V68H128V84C128 87.3137 130.686 90 134 90C137.314 90 140 87.3137 140 84V68C140 61.3726 134.627 56 128 56H64Z" fill="white"/>
  <path d="M83.2 99.2L104 120L140.8 83.2" stroke="white" stroke-width="12.8" stroke-linecap="round" stroke-linejoin="round"/>
</svg>
